<?xml version="1.0" standalone="no"?>
<!DOCTYPE svg PUBLIC "-//W3C//DTD SVG 20010904//EN"
 "http://www.w3.org/TR/2001/REC-SVG-20010904/DTD/svg10.dtd">
<svg version="1.0" xmlns="http://www.w3.org/2000/svg"
 width="124.000000pt" height="127.000000pt" viewBox="0 0 124.000000 127.000000"
 preserveAspectRatio="xMidYMid meet">

<g transform="translate(0.000000,127.000000) scale(0.100000,-0.100000)"
fill="#000000" stroke="none">
<path d="M582 1070 c-8 -14 -10 -26 -3 -38 8 -14 10 -13 16 10 10 37 3 52 -13
28z"/>
<path d="M656 1074 c-8 -21 13 -49 27 -35 6 6 4 17 -6 31 -13 18 -15 19 -21 4z"/>
<path d="M495 1050 c-27 -30 -12 -34 15 -5 13 14 19 25 13 25 -5 0 -18 -9 -28
-20z"/>
<path d="M750 1045 c13 -14 26 -23 28 -20 7 7 -29 45 -41 45 -6 0 0 -11 13
-25z"/>
<path d="M403 991 c-34 -29 -28 -46 7 -21 17 12 30 26 30 31 0 14 -13 10 -37
-10z"/>
<path d="M506 991 c-15 -17 -13 -51 4 -51 15 0 42 40 37 55 -8 20 -20 19 -41
-4z"/>
<path d="M609 989 c-9 -17 -8 -25 5 -37 15 -15 17 -15 32 0 13 12 14 20 5 37
-7 11 -16 21 -21 21 -5 0 -14 -10 -21 -21z"/>
<path d="M713 995 c-5 -15 22 -55 37 -55 17 0 19 34 4 51 -21 23 -33 24 -41 4z"/>
<path d="M820 1001 c0 -10 39 -41 52 -41 19 0 6 21 -22 35 -16 9 -30 11 -30 6z"/>
<path d="M318 944 c-16 -8 -28 -21 -28 -29 0 -11 5 -11 30 1 17 9 30 22 30 30
0 17 2 17 -32 -2z"/>
<path d="M910 944 c0 -7 14 -20 30 -29 26 -13 30 -13 30 -1 0 8 -13 21 -30 30
-25 12 -30 12 -30 0z"/>
<path d="M423 921 c-24 -20 -30 -46 -14 -56 17 -10 63 38 56 58 -9 21 -14 21
-42 -2z"/>
<path d="M794 925 c-7 -17 10 -41 38 -56 29 -16 35 17 8 47 -27 28 -38 30 -46
9z"/>
<path d="M546 911 c-15 -16 -15 -22 -4 -40 16 -26 20 -26 42 -2 14 15 15 24 6
40 -13 26 -22 26 -44 2z"/>
<path d="M671 912 c-7 -14 -6 -25 5 -40 19 -27 30 -28 44 -1 9 16 8 25 -6 40
-21 24 -31 24 -43 1z"/>
<path d="M218 898 c-35 -12 -39 -43 -5 -33 27 9 52 31 40 37 -4 3 -20 1 -35
-4z"/>
<path d="M1006 895 c7 -16 35 -35 53 -35 21 0 11 27 -14 38 -35 16 -46 15 -39
-3z"/>
<path d="M345 864 c-11 -9 -26 -19 -33 -23 -15 -8 -6 -41 12 -41 6 0 21 8 34
18 17 14 21 23 15 39 -7 20 -10 20 -28 7z"/>
<path d="M886 853 c-7 -17 6 -32 47 -54 11 -6 17 -6 17 0 0 5 2 15 5 23 3 8
-7 21 -24 31 -36 21 -37 21 -45 0z"/>
<path d="M750 835 c-12 -23 -11 -27 10 -50 29 -31 36 -31 51 -4 9 18 7 26 -18
51 l-29 29 -14 -26z"/>
<path d="M461 826 c-19 -20 -21 -28 -12 -45 15 -27 22 -26 50 3 19 20 21 28
12 45 -15 27 -22 26 -50 -3z"/>
<path d="M605 824 c-16 -25 -16 -27 4 -47 l21 -21 21 21 c20 20 20 22 4 47
-10 14 -21 26 -25 26 -4 0 -15 -12 -25 -26z"/>
<path d="M228 792 c-26 -16 -36 -41 -22 -55 7 -7 74 24 74 34 0 14 -12 39 -19
38 -3 0 -18 -8 -33 -17z"/>
<path d="M987 804 c-15 -16 -5 -40 24 -57 17 -9 35 -15 40 -11 18 11 8 41 -18
55 -16 7 -31 15 -34 16 -3 2 -8 0 -12 -3z"/>
<path d="M375 756 c-27 -21 -28 -26 -17 -50 l12 -27 30 23 c22 16 29 27 24 42
-10 35 -18 36 -49 12z"/>
<path d="M840 754 c-10 -24 -8 -30 17 -50 26 -21 29 -21 41 -7 19 26 15 40
-18 63 l-30 21 -10 -27z"/>
<path d="M521 736 c-22 -23 -22 -25 -6 -50 21 -32 26 -32 55 -1 22 23 22 25 6
50 -20 31 -27 31 -55 1z"/>
<path d="M684 734 c-17 -25 -16 -26 10 -52 l27 -27 18 24 c18 24 18 25 -2 53
-26 35 -32 35 -53 2z"/>
<path d="M267 677 c-25 -20 -27 -25 -18 -50 l11 -28 31 18 c38 22 44 35 29 62
-14 26 -18 26 -53 -2z"/>
<path d="M939 678 c-10 -19 -8 -25 22 -50 31 -26 35 -27 46 -11 19 26 16 40
-16 62 -36 26 -38 26 -52 -1z"/>
<path d="M435 650 c-27 -29 -28 -30 -10 -56 l17 -27 30 31 31 30 -20 26 -20
25 -28 -29z"/>
<path d="M771 649 c-12 -20 -10 -25 17 -52 l30 -30 17 27 c17 26 17 27 -5 51
-29 31 -41 31 -59 4z"/>
<path d="M600 635 l-24 -26 27 -27 27 -27 27 27 27 27 -24 26 c-13 14 -26 25
-30 25 -4 0 -17 -11 -30 -25z"/>
<path d="M331 564 c-34 -29 -37 -40 -16 -68 14 -18 15 -18 50 8 34 27 35 28
20 57 -9 16 -17 29 -19 29 -3 0 -18 -12 -35 -26z"/>
<path d="M876 562 c-14 -27 -14 -31 7 -49 37 -33 47 -36 62 -17 26 34 17 53
-37 84 -14 8 -20 5 -32 -18z"/>
<path d="M512 539 c-23 -28 -23 -31 -8 -54 20 -31 27 -31 54 -2 28 29 27 38 0
64 l-23 21 -23 -29z"/>
<path d="M698 545 c-23 -31 -23 -37 8 -66 l26 -24 19 24 c25 30 24 32 -8 63
l-28 26 -17 -23z"/>
<path d="M402 437 l-31 -32 22 -27 22 -27 33 29 c17 16 32 33 32 37 -1 9 -36
53 -42 53 -2 0 -18 -15 -36 -33z"/>
<path d="M796 445 c-21 -32 -20 -35 19 -68 l33 -27 21 28 20 29 -32 31 c-18
18 -36 32 -39 32 -3 0 -13 -11 -22 -25z"/>
<path d="M601 429 l-24 -31 20 -26 c11 -15 26 -27 33 -27 7 0 22 12 33 27 l20
26 -24 31 c-13 16 -26 30 -29 30 -3 0 -16 -14 -29 -30z"/>
<path d="M492 317 l-32 -33 28 -33 27 -32 34 35 33 34 -21 31 c-13 17 -26 31
-30 31 -4 0 -21 -15 -39 -33z"/>
<path d="M701 324 c-27 -34 -27 -36 11 -73 l33 -32 27 33 27 33 -32 33 c-17
17 -34 32 -38 32 -4 0 -17 -12 -28 -26z"/>
<path d="M597 202 c-15 -15 -27 -32 -27 -38 0 -5 14 -24 30 -42 l30 -32 34 37
35 38 -32 33 c-17 17 -34 32 -37 32 -3 0 -18 -13 -33 -28z"/>
</g>
</svg>
